<?xml version="1.0" standalone="no"?>
<!DOCTYPE svg PUBLIC "-//W3C//DTD SVG 20010904//EN"
 "http://www.w3.org/TR/2001/REC-SVG-20010904/DTD/svg10.dtd">
<svg version="1.0" xmlns="http://www.w3.org/2000/svg"
 width="260.000000pt" height="260.000000pt" viewBox="0 0 260.000000 260.000000"
 preserveAspectRatio="xMidYMid meet">
<metadata>
Created by potrace 1.14, written by Peter Selinger 2001-2017
</metadata>
<g transform="translate(0.000000,260.000000) scale(0.100000,-0.100000)"
fill="#000000" stroke="none">
<path d="M1120 2590 c-25 -4 -58 -10 -75 -13 -142 -23 -359 -115 -490 -206
-279 -196 -463 -471 -535 -801 -27 -119 -27 -419 0 -540 36 -166 101 -319 194
-458 168 -249 432 -441 721 -522 135 -38 196 -45 375 -44 214 1 374 39 565
135 354 178 606 507 691 904 26 122 27 343 3 480 -28 155 -84 308 -156 429
-186 310 -478 528 -813 606 -47 11 -96 23 -110 26 -39 10 -320 12 -370 4z"/>
</g>
</svg>
