<svg width="30" height="30" viewBox="0 0 30 30" fill="none" xmlns="http://www.w3.org/2000/svg">
<path d="M24.2063 15.7L17.9814 21.95C17.7814 22.15 17.5313 22.25 17.2813 22.25C17.0313 22.25 16.7813 22.15 16.5813 21.95C16.1813 21.55 16.1813 20.925 16.5813 20.525L21.1064 15.975H6.50635C5.95635 15.975 5.50635 15.525 5.50635 14.975C5.50635 14.425 5.95635 13.975 6.50635 13.975H21.1064L16.5813 9.42501C16.1813 9.02501 16.1813 8.40001 16.5813 8.00001C16.9813 7.60001 17.6063 7.60001 18.0063 8.00001L24.2314 14.25C24.6064 14.675 24.6063 15.325 24.2063 15.7Z" fill="black"/>
</svg>
